<!DOCTYPE svg PUBLIC "-//W3C//DTD SVG 1.1//EN" "http://www.w3.org/Graphics/SVG/1.1/DTD/svg11.dtd">
<!-- Uploaded to: SVG Repo, www.svgrepo.com, Transformed by: SVG Repo Mixer Tools -->
<svg fill="#000000" height="800px" width="800px" version="1.1" id="Layer_1" xmlns="http://www.w3.org/2000/svg" xmlns:xlink="http://www.w3.org/1999/xlink" viewBox="0 0 512 512" xml:space="preserve" stroke="#000000" stroke-width="10.751999999999999">
<g id="SVGRepo_bgCarrier" stroke-width="0"/>
<g id="SVGRepo_tracerCarrier" stroke-linecap="round" stroke-linejoin="round"/>
<g id="SVGRepo_iconCarrier"> <g transform="translate(1 1)"> <g> <path d="M476.867,203.8h-8.533v-42.667c0-33.28-26.453-59.733-59.733-59.733c-16.809,0-31.87,6.755-42.667,17.722v-9.189 c0-33.28-26.453-59.733-59.733-59.733c-16.809,0-31.87,6.755-42.667,17.722v-9.189C263.533,25.453,237.08-1,203.8-1 c-33.28,0-59.733,26.453-59.733,59.733V152.6H31.427c-12.8,0-23.893,11.093-23.893,23.893v157.013 c0,12.8,11.093,23.893,23.893,23.893h112.64v93.867c0,33.28,26.453,59.733,59.733,59.733c33.28,0,59.733-26.453,59.733-59.733 v-9.189C274.33,453.045,289.391,459.8,306.2,459.8c32.427,0,59.733-26.453,59.733-59.733v-9.189 C376.73,401.845,391.791,408.6,408.6,408.6c32.427,0,59.733-26.453,59.733-59.733v-51.2h8.533c13.653,0,25.6-11.093,25.6-25.6 V229.4C502.467,214.893,491.373,203.8,476.867,203.8z M31.427,340.333c-3.413,0-6.827-3.413-6.827-6.827v-10.24h34.133 c4.267,0,8.533-3.413,8.533-8.533s-3.413-8.533-8.533-8.533H24.6v-17.067h25.6c4.267,0,8.533-3.413,8.533-8.533 s-3.413-8.533-8.533-8.533H24.6V255h17.067c4.267,0,8.533-3.413,8.533-8.533s-3.413-8.533-8.533-8.533H24.6v-61.44 c0-3.413,3.413-6.827,6.827-6.827h112.64v170.667H31.427z M246.467,451.267c0,23.893-18.773,42.667-42.667,42.667 s-42.667-18.773-42.667-42.667v-102.4V161.133v-102.4c0-23.893,18.773-42.667,42.667-42.667c23.04,0,42.667,18.773,42.667,42.667 v51.2v290.133V451.267z M348.867,400.067c0,23.893-18.773,42.667-42.667,42.667s-42.667-18.773-42.667-42.667V109.933 c0-23.893,18.773-42.667,42.667-42.667c23.04,0,42.667,18.773,42.667,42.667v51.2v187.733V400.067z M451.267,348.867 c0,23.893-18.773,42.667-42.667,42.667c-23.893,0-42.667-18.773-42.667-42.667V161.133c0-23.893,18.773-42.667,42.667-42.667 c23.04,0,42.667,18.773,42.667,42.667v51.2v76.8V348.867z M485.4,272.067c0,5.12-3.413,8.533-8.533,8.533h-8.533v-59.733h8.533 c5.12,0,8.533,3.413,8.533,8.533V272.067z"/> </g> </g> </g>
</svg>