<?xml version="1.0" encoding="UTF-8" standalone="no" ?>
<!DOCTYPE svg PUBLIC "-//W3C//DTD SVG 1.1//EN" "http://www.w3.org/Graphics/SVG/1.1/DTD/svg11.dtd">
<svg xmlns="http://www.w3.org/2000/svg" xmlns:xlink="http://www.w3.org/1999/xlink" version="1.1" width="1080" height="1080" viewBox="0 0 1080 1080" xml:space="preserve">
<desc>Created with Fabric.js 5.2.4</desc>
<defs>
</defs>
<rect x="0" y="0" width="100%" height="100%" fill="transparent"></rect>
<g transform="matrix(1 0 0 1 540 540)" id="d7d0bff2-31de-44d9-8df0-5ad7bce083bc"  >
<rect style="stroke: none; stroke-width: 1; stroke-dasharray: none; stroke-linecap: butt; stroke-dashoffset: 0; stroke-linejoin: miter; stroke-miterlimit: 4; fill: rgb(255,255,255); fill-rule: nonzero; opacity: 1; visibility: hidden;" vector-effect="non-scaling-stroke"  x="-540" y="-540" rx="0" ry="0" width="1080" height="1080" />
</g>
<g transform="matrix(1 0 0 1 540 540)" id="f2c3f1ec-f84c-4858-97c1-4947b743bd7c"  >
</g>
<g transform="matrix(2.96 0 0 2.96 540 540)"  >
<path style="stroke: none; stroke-width: 1; stroke-dasharray: none; stroke-linecap: butt; stroke-dashoffset: 0; stroke-linejoin: miter; stroke-miterlimit: 4; fill: rgb(0,0,0); fill-rule: evenodd; opacity: 1;" vector-effect="non-scaling-stroke"  transform=" translate(-81.84, -82.16)" d="M 86.037 20.482 C 86.069 20.899 85.682 23.753 86.43100000000001 23.91 C 88.31300000000002 24.305 91.25400000000002 26.009 92.811 27.428 C 102.069 31.254 106.61500000000001 31.756 104.10600000000001 48.599000000000004 C 104.73200000000001 60.274 103.757 71.202 102.471 83.029 C 103.187 87.002 104.078 90.75099999999999 100.73100000000001 95.566 C 94.85300000000001 99.849 97.977 96.757 97.46700000000001 93.173 C 97.53900000000002 91.287 97.61200000000001 89.402 97.68500000000002 87.516 C 100.20300000000002 80.32300000000001 96.39600000000002 66.486 95.10100000000001 58.498000000000005 C 94.89300000000001 52.45100000000001 95.61300000000001 46.59700000000001 96.38200000000002 41.527 C 91.97400000000002 61.431 93.19900000000001 66.009 94.35400000000001 69.398 C 97.76400000000001 79.404 96.10400000000001 89.50999999999999 94.66600000000001 102.012 C 94.159 107.451 93.65 114.658 93.144 120.09700000000001 C 94.07000000000001 127.50500000000001 95.018 128.57000000000002 93.796 136.388 C 91.81800000000001 142.555 89.97600000000001 148.392 88.357 154.663 C 87.916 159.08 90.742 160.041 94.014 162.496 C 89.756 164.788 87.993 163.847 83.13499999999999 163.583 C 83.445 156.076 84.386 147.014 83.70299999999999 139.679 C 83.05499999999999 132.701 83.46199999999999 127.887 84.87599999999999 121.158 C 82.80499999999999 113.287 82.39899999999999 91.613 81.53699999999999 82.33500000000001 C 80.67399999999999 91.61300000000001 80.26899999999999 113.287 78.198 121.15800000000002 C 79.491 127.64500000000001 79.99199999999999 132.644 79.366 139.66500000000002 C 78.707 147.062 79.627 156.03000000000003 79.938 163.58400000000003 C 75.08 163.84800000000004 73.31700000000001 164.78900000000004 69.06 162.49700000000004 C 72.33200000000001 160.04200000000003 75.159 159.08100000000005 74.717 154.66400000000004 C 73.098 148.39300000000006 71.256 142.55600000000004 69.27799999999999 136.38900000000004 C 68.056 128.57100000000003 69.005 125.73800000000004 69.92999999999999 118.33000000000004 C 69.42299999999999 112.89100000000005 68.91499999999999 107.45200000000004 68.407 102.01300000000003 C 66.969 88.55900000000003 65.932 79.05200000000004 68.719 68.85500000000003 C 69.61099999999999 65.59000000000003 71.48599999999999 59.77400000000003 66.963 41.528000000000034 C 68.005 48.02600000000003 68.249 47.896000000000036 67.972 58.49900000000004 C 66.865 66.39300000000004 63.73799999999999 80.02600000000004 65.66 87.51700000000004 C 65.732 89.40300000000003 65.80499999999999 91.28800000000004 65.877 93.17400000000004 C 65.979 96.55400000000003 68.491 99.85000000000004 62.614 95.56700000000004 C 59.538 92.24800000000003 60.294 86.32200000000003 61.009 82.35000000000004 C 59.724000000000004 70.52200000000003 58.885 58.915000000000035 59.51 47.24000000000004 C 57.027 30.568000000000037 62.289 31.226000000000038 70.618 27.443000000000037 C 72.032 26.254000000000037 74.838 24.377000000000038 76.365 23.933000000000035 C 77.073 23.728000000000037 76.737 22.390000000000036 76.708 20.519000000000034 C 75.723 19.104000000000035 75.277 18.022000000000034 74.8 16.061000000000035 C 73.35 15.059000000000035 73.12299999999999 13.843000000000035 73.37599999999999 11.906000000000034 C 74.01599999999999 11.587000000000033 74.12299999999999 11.575000000000035 74.505 11.831000000000035 C 72.625 5.013000000000035 74.155 0.5680000000000351 81.393 0.32100000000003526 C 88.871 0.43900000000003525 89.522 5.683000000000035 88.12 11.858000000000036 C 88.53500000000001 11.574000000000035 88.629 11.575000000000037 89.289 11.906000000000036 C 89.547 13.880000000000036 89.307 15.105000000000036 87.78 16.118000000000038 C 87.55 17.68600000000004 86.936 19.051000000000037 86.034 20.384000000000036 L 86.037 20.482 z" stroke-linecap="round" />
</g>
</svg>